P3  # This is an RGB image in ascii format
# It's size is 84 x 14
84 14
255
  0   0   0   0   0   0
  0   0   0   0   0   0   0   0   0   0   0   0   0   0   0
  0   0   0   0   0   0   0   0   0   0   0   0   0   0   0
  0   0   0   0   0   0   0   0   0   0   0   0   0   0   0
  0   0   0   0   0   0   0   0   0   0   0   0   0   0   0
  0   0   0   0   0   0   0   0   0   0   0   0   0   0   0
  0   0   0   0   0   0   0   0   0   0   0   0   0   0   0
  0   0   0   0   0   0   0   0   0   0   0   0   0   0   0
  0   0   0   0   0   0   0   0   0   0   0   0   0   0   0
  0   0   0   0   0   0   0   0   0   0   0   0   0   0   0
  0   0   0   0   0   0   0   0   0   0   0   0   0   0   0
  0   0   0   0   0   0   0   0   0   0   0   0   0   0   0
  0   0   0   0   0   0   0   0   0   0   0   0   0   0   0
  0   0   0   0   0   0   0   0   0   0   0   0   0   0   0
  0   0   0   0   0   0   0   0   0   0   0   0   0   0   0
  0   0   0   0   0   0   0   0   0   0   0   0   0   0   0
  0   0   0   0   0   0   0   0   0   0   0   0   0   0   0
  0   0   0   0   0   0
  0   0   0   0   0   0
  0   0   0   0   0   0   0   0   0   0   0   0   0   0   0
  0   0   0   0   0   0   0   0   0   0   0   0   0   0   0
  0   0   0   0   0   0   0   0   0   0   0   0   0   0   0
  0   0   0   0   0   0   0   0   0   0   0   0   0   0   0
  0   0   0   0   0   0   0   0   0   0   0   0   0   0   0
  0   0   0   0   0   0   0   0   0   0   0   0   0   0   0
  0   0   0   0   0   0   0   0   0   0   0   0   0   0   0
  0   0   0   0   0   0   0   0   0   0   0   0   0   0   0
  0   0   0   0   0   0   0   0   0   0   0   0   0   0   0
  0   0   0   0   0   0   0   0   0   0   0   0   0   0   0
  0   0   0   0   0   0   0   0   0   0   0   0   0   0   0
  0   0   0   0   0   0   0   0   0   0   0   0   0   0   0
  0   0   0   0   0   0   0   0   0   0   0   0   0   0   0
  0   0   0   0   0   0   0   0   0   0   0   0   0   0   0
  0   0   0   0   0   0   0   0   0   0   0   0   0   0   0
  0   0   0   0   0   0   0   0   0   0   0   0   0   0   0
  0   0   0   0   0   0
  0   0   0   0   0   0
255   0   0 255   0   0 255   0   0 255   0   0 255   0   0
255   0   0 255   0   0 255   0   0 255   0   0 255   0   0
  0 255   0   0 255   0   0 255   0   0 255   0   0 255   0
  0 255   0   0 255   0   0 255   0   0 255   0   0 255   0
  0   0 255   0   0 255   0   0 255   0   0 255   0   0 255
  0   0 255   0   0 255   0   0 255   0   0 255   0   0 255
255 255 255 255 255 255 255 255 255 255 255 255 255 255 255
255 255 255 255 255 255 255 255 255 255 255 255 255 255 255
  0   0   0   0   0   0   0   0   0   0   0   0   0   0   0
  0   0   0   0   0   0   0   0   0   0   0   0   0   0   0
255 255   0 255 255   0 255 255   0 255 255   0 255 255   0
255 255   0 255 255   0 255 255   0 255 255   0 255 255   0
255   0 255 255   0 255 255   0 255 255   0 255 255   0 255
255   0 255 255   0 255 255   0 255 255   0 255 255   0 255
  0 255 255   0 255 255   0 255 255   0 255 255   0 255 255
  0 255 255   0 255 255   0 255 255   0 255 255   0 255 255
  0   0   0   0   0   0
  0   0   0   0   0   0
255   0   0 255   0   0 255   0   0 255   0   0 255   0   0
255   0   0 255   0   0 255   0   0 255   0   0 255   0   0
  0 255   0   0 255   0   0 255   0   0 255   0   0 255   0
  0 255   0   0 255   0   0 255   0   0 255   0   0 255   0
  0   0 255   0   0 255   0   0 255   0   0 255   0   0 255
  0   0 255   0   0 255   0   0 255   0   0 255   0   0 255
255 255 255 255 255 255 255 255 255 255 255 255 255 255 255
255 255 255 255 255 255 255 255 255 255 255 255 255 255 255
  0   0   0   0   0   0   0   0   0   0   0   0   0   0   0
  0   0   0   0   0   0   0   0   0   0   0   0   0   0   0
255 255   0 255 255   0 255 255   0 255 255   0 255 255   0
255 255   0 255 255   0 255 255   0 255 255   0 255 255   0
255   0 255 255   0 255 255   0 255 255   0 255 255   0 255
255   0 255 255   0 255 255   0 255 255   0 255 255   0 255
  0 255 255   0 255 255   0 255 255   0 255 255   0 255 255
  0 255 255   0 255 255   0 255 255   0 255 255   0 255 255
  0   0   0   0   0   0
  0   0   0   0   0   0
255   0   0 255   0   0 255   0   0 255   0   0 255   0   0
255   0   0 255   0   0 255   0   0 255   0   0 255   0   0
  0 255   0   0 255   0   0 255   0   0 255   0   0 255   0
  0 255   0   0 255   0   0 255   0   0 255   0   0 255   0
  0   0 255   0   0 255   0   0 255   0   0 255   0   0 255
  0   0 255   0   0 255   0   0 255   0   0 255   0   0 255
255 255 255 255 255 255 255 255 255 255 255 255 255 255 255
255 255 255 255 255 255 255 255 255 255 255 255 255 255 255
  0   0   0   0   0   0   0   0   0   0   0   0   0   0   0
  0   0   0   0   0   0   0   0   0   0   0   0   0   0   0
255 255   0 255 255   0 255 255   0 255 255   0 255 255   0
255 255   0 255 255   0 255 255   0 255 255   0 255 255   0
255   0 255 255   0 255 255   0 255 255   0 255 255   0 255
255   0 255 255   0 255 255   0 255 255   0 255 255   0 255
  0 255 255   0 255 255   0 255 255   0 255 255   0 255 255
  0 255 255   0 255 255   0 255 255   0 255 255   0 255 255
  0   0   0   0   0   0
  0   0   0   0   0   0
255   0   0 255   0   0 255   0   0 255   0   0 255   0   0
255   0   0 255   0   0 255   0   0 255   0   0 255   0   0
  0 255   0   0 255   0   0 255   0   0 255   0   0 255   0
  0 255   0   0 255   0   0 255   0   0 255   0   0 255   0
  0   0 255   0   0 255   0   0 255   0   0 255   0   0 255
  0   0 255   0   0 255   0   0 255   0   0 255   0   0 255
255 255 255 255 255 255 255 255 255 255 255 255 255 255 255
255 255 255 255 255 255 255 255 255 255 255 255 255 255 255
  0   0   0   0   0   0   0   0   0   0   0   0   0   0   0
  0   0   0   0   0   0   0   0   0   0   0   0   0   0   0
255 255   0 255 255   0 255 255   0 255 255   0 255 255   0
255 255   0 255 255   0 255 255   0 255 255   0 255 255   0
255   0 255 255   0 255 255   0 255 255   0 255 255   0 255
255   0 255 255   0 255 255   0 255 255   0 255 255   0 255
  0 255 255   0 255 255   0 255 255   0 255 255   0 255 255
  0 255 255   0 255 255   0 255 255   0 255 255   0 255 255
  0   0   0   0   0   0
  0   0   0   0   0   0
255   0   0 255   0   0 255   0   0 255   0   0 255   0   0
255   0   0 255   0   0 255   0   0 255   0   0 255   0   0
  0 255   0   0 255   0   0 255   0   0 255   0   0 255   0
  0 255   0   0 255   0   0 255   0   0 255   0   0 255   0
  0   0 255   0   0 255   0   0 255   0   0 255   0   0 255
  0   0 255   0   0 255   0   0 255   0   0 255   0   0 255
255 255 255 255 255 255 255 255 255 255 255 255 255 255 255
255 255 255 255 255 255 255 255 255 255 255 255 255 255 255
  0   0   0   0   0   0   0   0   0   0   0   0   0   0   0
  0   0   0   0   0   0   0   0   0   0   0   0   0   0   0
255 255   0 255 255   0 255 255   0 255 255   0 255 255   0
255 255   0 255 255   0 255 255   0 255 255   0 255 255   0
255   0 255 255   0 255 255   0 255 255   0 255 255   0 255
255   0 255 255   0 255 255   0 255 255   0 255 255   0 255
  0 255 255   0 255 255   0 255 255   0 255 255   0 255 255
  0 255 255   0 255 255   0 255 255   0 255 255   0 255 255
  0   0   0   0   0   0
  0   0   0   0   0   0
255   0   0 255   0   0 255   0   0 255   0   0 255   0   0
255   0   0 255   0   0 255   0   0 255   0   0 255   0   0
  0 255   0   0 255   0   0 255   0   0 255   0   0 255   0
  0 255   0   0 255   0   0 255   0   0 255   0   0 255   0
  0   0 255   0   0 255   0   0 255   0   0 255   0   0 255
  0   0 255   0   0 255   0   0 255   0   0 255   0   0 255
255 255 255 255 255 255 255 255 255 255 255 255 255 255 255
255 255 255 255 255 255 255 255 255 255 255 255 255 255 255
  0   0   0   0   0   0   0   0   0   0   0   0   0   0   0
  0   0   0   0   0   0   0   0   0   0   0   0   0   0   0
255 255   0 255 255   0 255 255   0 255 255   0 255 255   0
255 255   0 255 255   0 255 255   0 255 255   0 255 255   0
255   0 255 255   0 255 255   0 255 255   0 255 255   0 255
255   0 255 255   0 255 255   0 255 255   0 255 255   0 255
  0 255 255   0 255 255   0 255 255   0 255 255   0 255 255
  0 255 255   0 255 255   0 255 255   0 255 255   0 255 255
  0   0   0   0   0   0
  0   0   0   0   0   0
255   0   0 255   0   0 255   0   0 255   0   0 255   0   0
255   0   0 255   0   0 255   0   0 255   0   0 255   0   0
  0 255   0   0 255   0   0 255   0   0 255   0   0 255   0
  0 255   0   0 255   0   0 255   0   0 255   0   0 255   0
  0   0 255   0   0 255   0   0 255   0   0 255   0   0 255
  0   0 255   0   0 255   0   0 255   0   0 255   0   0 255
255 255 255 255 255 255 255 255 255 255 255 255 255 255 255
255 255 255 255 255 255 255 255 255 255 255 255 255 255 255
  0   0   0   0   0   0   0   0   0   0   0   0   0   0   0
  0   0   0   0   0   0   0   0   0   0   0   0   0   0   0
255 255   0 255 255   0 255 255   0 255 255   0 255 255   0
255 255   0 255 255   0 255 255   0 255 255   0 255 255   0
255   0 255 255   0 255 255   0 255 255   0 255 255   0 255
255   0 255 255   0 255 255   0 255 255   0 255 255   0 255
  0 255 255   0 255 255   0 255 255   0 255 255   0 255 255
  0 255 255   0 255 255   0 255 255   0 255 255   0 255 255
  0   0   0   0   0   0
  0   0   0   0   0   0
255   0   0 255   0   0 255   0   0 255   0   0 255   0   0
255   0   0 255   0   0 255   0   0 255   0   0 255   0   0
  0 255   0   0 255   0   0 255   0   0 255   0   0 255   0
  0 255   0   0 255   0   0 255   0   0 255   0   0 255   0
  0   0 255   0   0 255   0   0 255   0   0 255   0   0 255
  0   0 255   0   0 255   0   0 255   0   0 255   0   0 255
255 255 255 255 255 255 255 255 255 255 255 255 255 255 255
255 255 255 255 255 255 255 255 255 255 255 255 255 255 255
  0   0   0   0   0   0   0   0   0   0   0   0   0   0   0
  0   0   0   0   0   0   0   0   0   0   0   0   0   0   0
255 255   0 255 255   0 255 255   0 255 255   0 255 255   0
255 255   0 255 255   0 255 255   0 255 255   0 255 255   0
255   0 255 255   0 255 255   0 255 255   0 255 255   0 255
255   0 255 255   0 255 255   0 255 255   0 255 255   0 255
  0 255 255   0 255 255   0 255 255   0 255 255   0 255 255
  0 255 255   0 255 255   0 255 255   0 255 255   0 255 255
  0   0   0   0   0   0
  0   0   0   0   0   0
255   0   0 255   0   0 255   0   0 255   0   0 255   0   0
255   0   0 255   0   0 255   0   0 255   0   0 255   0   0
  0 255   0   0 255   0   0 255   0   0 255   0   0 255   0
  0 255   0   0 255   0   0 255   0   0 255   0   0 255   0
  0   0 255   0   0 255   0   0 255   0   0 255   0   0 255
  0   0 255   0   0 255   0   0 255   0   0 255   0   0 255
255 255 255 255 255 255 255 255 255 255 255 255 255 255 255
255 255 255 255 255 255 255 255 255 255 255 255 255 255 255
  0   0   0   0   0   0   0   0   0   0   0   0   0   0   0
  0   0   0   0   0   0   0   0   0   0   0   0   0   0   0
255 255   0 255 255   0 255 255   0 255 255   0 255 255   0
255 255   0 255 255   0 255 255   0 255 255   0 255 255   0
255   0 255 255   0 255 255   0 255 255   0 255 255   0 255
255   0 255 255   0 255 255   0 255 255   0 255 255   0 255
  0 255 255   0 255 255   0 255 255   0 255 255   0 255 255
  0 255 255   0 255 255   0 255 255   0 255 255   0 255 255
  0   0   0   0   0   0
  0   0   0   0   0   0
255   0   0 255   0   0 255   0   0 255   0   0 255   0   0
255   0   0 255   0   0 255   0   0 255   0   0 255   0   0
  0 255   0   0 255   0   0 255   0   0 255   0   0 255   0
  0 255   0   0 255   0   0 255   0   0 255   0   0 255   0
  0   0 255   0   0 255   0   0 255   0   0 255   0   0 255
  0   0 255   0   0 255   0   0 255   0   0 255   0   0 255
255 255 255 255 255 255 255 255 255 255 255 255 255 255 255
255 255 255 255 255 255 255 255 255 255 255 255 255 255 255
  0   0   0   0   0   0   0   0   0   0   0   0   0   0   0
  0   0   0   0   0   0   0   0   0   0   0   0   0   0   0
255 255   0 255 255   0 255 255   0 255 255   0 255 255   0
255 255   0 255 255   0 255 255   0 255 255   0 255 255   0
255   0 255 255   0 255 255   0 255 255   0 255 255   0 255
255   0 255 255   0 255 255   0 255 255   0 255 255   0 255
  0 255 255   0 255 255   0 255 255   0 255 255   0 255 255
  0 255 255   0 255 255   0 255 255   0 255 255   0 255 255
  0   0   0   0   0   0
  0   0   0   0   0   0
  0   0   0   0   0   0   0   0   0   0   0   0   0   0   0
  0   0   0   0   0   0   0   0   0   0   0   0   0   0   0
  0   0   0   0   0   0   0   0   0   0   0   0   0   0   0
  0   0   0   0   0   0   0   0   0   0   0   0   0   0   0
  0   0   0   0   0   0   0   0   0   0   0   0   0   0   0
  0   0   0   0   0   0   0   0   0   0   0   0   0   0   0
  0   0   0   0   0   0   0   0   0   0   0   0   0   0   0
  0   0   0   0   0   0   0   0   0   0   0   0   0   0   0
  0   0   0   0   0   0   0   0   0   0   0   0   0   0   0
  0   0   0   0   0   0   0   0   0   0   0   0   0   0   0
  0   0   0   0   0   0   0   0   0   0   0   0   0   0   0
  0   0   0   0   0   0   0   0   0   0   0   0   0   0   0
  0   0   0   0   0   0   0   0   0   0   0   0   0   0   0
  0   0   0   0   0   0   0   0   0   0   0   0   0   0   0
  0   0   0   0   0   0   0   0   0   0   0   0   0   0   0
  0   0   0   0   0   0   0   0   0   0   0   0   0   0   0
  0   0   0   0   0   0
  0   0   0   0   0   0
  0   0   0   0   0   0   0   0   0   0   0   0   0   0   0
  0   0   0   0   0   0   0   0   0   0   0   0   0   0   0
  0   0   0   0   0   0   0   0   0   0   0   0   0   0   0
  0   0   0   0   0   0   0   0   0   0   0   0   0   0   0
  0   0   0   0   0   0   0   0   0   0   0   0   0   0   0
  0   0   0   0   0   0   0   0   0   0   0   0   0   0   0
  0   0   0   0   0   0   0   0   0   0   0   0   0   0   0
  0   0   0   0   0   0   0   0   0   0   0   0   0   0   0
  0   0   0   0   0   0   0   0   0   0   0   0   0   0   0
  0   0   0   0   0   0   0   0   0   0   0   0   0   0   0
  0   0   0   0   0   0   0   0   0   0   0   0   0   0   0
  0   0   0   0   0   0   0   0   0   0   0   0   0   0   0
  0   0   0   0   0   0   0   0   0   0   0   0   0   0   0
  0   0   0   0   0   0   0   0   0   0   0   0   0   0   0
  0   0   0   0   0   0   0   0   0   0   0   0   0   0   0
  0   0   0   0   0   0   0   0   0   0   0   0   0   0   0
  0   0   0   0   0   0
