P2
84 14
255
0 0 0 0 0 0 0 0 0 0 0 0 0 0 0 0 0 0 0 0 0 0 0 0 0 0 0 0 0 0 0 0 0 0 0 0 0 0 0 0 0 0 0 0 0 0 0 0 0 0 0 0 0 0 0 0 0 0 0 0 0 0 0 0 0 0 0 0 0 0 0 0 0 0 0 0 0 0 0 0 0 0 0 0 
0 0 0 0 0 0 0 0 0 0 0 0 0 0 0 0 0 0 0 0 0 0 0 0 0 0 0 0 0 0 0 0 0 0 0 0 0 0 0 0 0 0 0 0 0 0 0 0 0 0 0 0 0 0 0 0 0 0 0 0 0 0 0 0 0 0 0 0 0 0 0 0 0 0 0 0 0 0 0 0 0 0 0 0 
0 0 76 76 76 76 76 76 76 76 76 76 149 149 149 149 149 149 149 149 149 149 29 29 29 29 29 29 29 29 29 29 255 255 255 255 255 255 255 255 255 255 0 0 0 0 0 0 0 0 0 0 225 225 225 225 225 225 225 225 225 225 105 105 105 105 105 105 105 105 105 105 178 178 178 178 178 178 178 178 178 178 0 0 
0 0 76 76 76 76 76 76 76 76 76 76 149 149 149 149 149 149 149 149 149 149 29 29 29 29 29 29 29 29 29 29 255 255 255 255 255 255 255 255 255 255 0 0 0 0 0 0 0 0 0 0 225 225 225 225 225 225 225 225 225 225 105 105 105 105 105 105 105 105 105 105 178 178 178 178 178 178 178 178 178 178 0 0 
0 0 76 76 76 76 76 76 76 76 76 76 149 149 149 149 149 149 149 149 149 149 29 29 29 29 29 29 29 29 29 29 255 255 255 255 255 255 255 255 255 255 0 0 0 0 0 0 0 0 0 0 225 225 225 225 225 225 225 225 225 225 105 105 105 105 105 105 105 105 105 105 178 178 178 178 178 178 178 178 178 178 0 0 
0 0 76 76 76 76 76 76 76 76 76 76 149 149 149 149 149 149 149 149 149 149 29 29 29 29 29 29 29 29 29 29 255 255 255 255 255 255 255 255 255 255 0 0 0 0 0 0 0 0 0 0 225 225 225 225 225 225 225 225 225 225 105 105 105 105 105 105 105 105 105 105 178 178 178 178 178 178 178 178 178 178 0 0 
0 0 76 76 76 76 76 76 76 76 76 76 149 149 149 149 149 149 149 149 149 149 29 29 29 29 29 29 29 29 29 29 255 255 255 255 255 255 255 255 255 255 0 0 0 0 0 0 0 0 0 0 225 225 225 225 225 225 225 225 225 225 105 105 105 105 105 105 105 105 105 105 178 178 178 178 178 178 178 178 178 178 0 0 
0 0 76 76 76 76 76 76 76 76 76 76 149 149 149 149 149 149 149 149 149 149 29 29 29 29 29 29 29 29 29 29 255 255 255 255 255 255 255 255 255 255 0 0 0 0 0 0 0 0 0 0 225 225 225 225 225 225 225 225 225 225 105 105 105 105 105 105 105 105 105 105 178 178 178 178 178 178 178 178 178 178 0 0 
0 0 76 76 76 76 76 76 76 76 76 76 149 149 149 149 149 149 149 149 149 149 29 29 29 29 29 29 29 29 29 29 255 255 255 255 255 255 255 255 255 255 0 0 0 0 0 0 0 0 0 0 225 225 225 225 225 225 225 225 225 225 105 105 105 105 105 105 105 105 105 105 178 178 178 178 178 178 178 178 178 178 0 0 
0 0 76 76 76 76 76 76 76 76 76 76 149 149 149 149 149 149 149 149 149 149 29 29 29 29 29 29 29 29 29 29 255 255 255 255 255 255 255 255 255 255 0 0 0 0 0 0 0 0 0 0 225 225 225 225 225 225 225 225 225 225 105 105 105 105 105 105 105 105 105 105 178 178 178 178 178 178 178 178 178 178 0 0 
0 0 76 76 76 76 76 76 76 76 76 76 149 149 149 149 149 149 149 149 149 149 29 29 29 29 29 29 29 29 29 29 255 255 255 255 255 255 255 255 255 255 0 0 0 0 0 0 0 0 0 0 225 225 225 225 225 225 225 225 225 225 105 105 105 105 105 105 105 105 105 105 178 178 178 178 178 178 178 178 178 178 0 0 
0 0 76 76 76 76 76 76 76 76 76 76 149 149 149 149 149 149 149 149 149 149 29 29 29 29 29 29 29 29 29 29 255 255 255 255 255 255 255 255 255 255 0 0 0 0 0 0 0 0 0 0 225 225 225 225 225 225 225 225 225 225 105 105 105 105 105 105 105 105 105 105 178 178 178 178 178 178 178 178 178 178 0 0 
0 0 0 0 0 0 0 0 0 0 0 0 0 0 0 0 0 0 0 0 0 0 0 0 0 0 0 0 0 0 0 0 0 0 0 0 0 0 0 0 0 0 0 0 0 0 0 0 0 0 0 0 0 0 0 0 0 0 0 0 0 0 0 0 0 0 0 0 0 0 0 0 0 0 0 0 0 0 0 0 0 0 0 0 
0 0 0 0 0 0 0 0 0 0 0 0 0 0 0 0 0 0 0 0 0 0 0 0 0 0 0 0 0 0 0 0 0 0 0 0 0 0 0 0 0 0 0 0 0 0 0 0 0 0 0 0 0 0 0 0 0 0 0 0 0 0 0 0 0 0 0 0 0 0 0 0 0 0 0 0 0 0 0 0 0 0 0 0 
